Fly_normalized_Motion_pl06
version=1
nRows=14
nColumns=43
inDegrees=yes
endheader
time		pelvis_tilt		pelvis_list		pelvis_rotation		pelvis_tx		pelvis_ty		pelvis_tz		hip_flexion_r		hip_adduction_r		hip_rotation_r		knee_angle_r		ankle_angle_r		subtalar_angle_r		mtp_angle_r		hip_flexion_l		hip_adduction_l		hip_rotation_l		knee_angle_l		ankle_angle_l		subtalar_angle_l		mtp_angle_l		lumbar_extension		lumbar_bending		lumbar_rotation		neck_flexion		neck_lateral_bending		neck_rotation		arm_flex_r		arm_add_r		arm_rot_r		elbow_flex_r		pro_sup_r		wrist_flex_r		wrist_dev_r		hand_finger_flex_r		arm_flex_l		arm_add_l		arm_rot_l		elbow_flex_l		pro_sup_l		wrist_flex_l		wrist_dev_l		hand_finger_flex_l		
0.664773		1.883263		-16.539449		90.730807		0.006654		1.713512		1.303888		80.732833		-12.091914		-3.216737		-127.253822		-15.499508		-20.260829		-3.665269		75.722082		-7.336856		3.490466		-115.772549		-18.847366		5.303019		-33.504086		-33.278374		-0.583327		0.493780		19.238565		0.189757		3.887346		102.488630		-23.504503		49.750476		41.857861		91.210286		-24.628445		1.740635		47.256838		126.010993		-33.487270		88.124810		57.716163		108.130326		-37.950724		11.798324		79.880267		
0.668864		1.850119		-16.242477		90.777579		0.006759		1.709724		1.296264		81.325953		-12.107844		-3.508995		-126.922825		-15.574231		-19.524768		-3.474312		76.090601		-7.345025		3.399174		-114.974290		-18.889680		5.415244		-33.610364		-33.581017		-0.643376		0.632251		19.143456		0.189751		3.718853		101.825525		-24.230010		50.771606		41.128500		91.598781		-23.896092		2.184844		47.170924		125.354183		-33.916217		88.411290		57.116924		108.522651		-37.957326		11.736251		80.194697		
0.672955		1.819427		-15.935414		90.829109		0.006887		1.705811		1.288609		81.897581		-12.087896		-3.801897		-126.579316		-15.611901		-18.904840		-3.307955		76.410377		-7.322677		3.337960		-114.124183		-18.900882		5.490006		-33.693121		-33.910691		-0.692533		0.753903		19.116292		0.204819		3.564113		101.088209		-24.949331		51.620581		40.465529		91.895902		-23.281436		2.577468		47.095552		124.702040		-34.438374		88.653289		56.596554		108.839783		-37.966253		11.685021		80.463858		
0.677045		1.776929		-15.580307		90.883551		0.007215		1.702028		1.280825		82.339859		-12.075629		-4.181953		-126.130870		-15.669410		-18.686829		-3.280679		76.608615		-7.328646		3.255612		-113.195863		-18.866196		5.487885		-33.692828		-34.330752		-0.773582		0.785909		19.262202		0.269627		3.486422		100.129319		-25.577242		52.012965		39.891455		91.965024		-23.092561		2.788143		47.112379		124.138043		-35.152425		88.911703		56.295210		108.887271		-37.915991		11.717069		80.524120		
0.681136		1.942987		-15.557004		91.049244		0.006683		1.697123		1.273295		83.141323		-12.147403		-4.430420		-125.698316		-15.140025		-16.527436		-2.399319		77.317088		-7.245186		3.340340		-112.363484		-19.167134		5.112404		-33.755428		-34.262107		-0.504952		1.210261		18.908843		0.023670		2.855425		99.602074		-26.785006		53.510534		39.655011		92.412635		-21.214120		4.317947		46.649755		122.471327		-35.544909		87.583608		55.490912		110.175852		-38.251771		11.344095		81.547932		
0.685227		1.896978		-15.207009		91.101575		0.007045		1.693043		1.265502		83.564271		-12.121259		-4.796476		-125.170404		-15.161568		-16.393468		-2.367632		77.453092		-7.239296		3.274652		-111.357191		-19.136538		5.099107		-33.747125		-34.672934		-0.586249		1.248048		19.076031		0.047709		2.828808		98.577765		-27.454641		53.844625		39.113618		92.468600		-21.081215		4.501013		46.652949		121.893741		-36.319713		87.847062		55.193068		110.214369		-38.175532		11.384675		81.602742		
0.689318		2.053233		-15.094633		91.269433		0.006686		1.688337		1.257780		84.135726		-12.206407		-5.178936		-124.568505		-14.788272		-15.032321		-1.095563		77.938204		-7.175509		3.317165		-110.363061		-19.468535		4.555069		-33.531032		-34.761249		-0.340030		1.564764		18.990700		-0.173576		2.373574		97.676379		-28.506480		54.425516		39.011012		93.074298		-19.916487		6.032716		46.021975		120.204091		-36.981505		86.129657		54.710801		111.705952		-37.920187		11.154753		82.391409		
0.693409		2.080005		-14.844024		91.347608		0.006829		1.683758		1.250009		84.597029		-12.196228		-5.526464		-123.945142		-14.613857		-14.497805		-0.592375		78.159161		-7.143070		3.309561		-109.291311		-19.563791		4.333051		-33.438816		-35.031606		-0.306445		1.711404		19.026708		-0.261436		2.213663		96.651591		-29.358164		54.841188		38.695935		93.331523		-19.398830		6.679611		45.799767		119.194606		-37.786222		85.674317		54.374083		112.267165		-37.764468		11.094541		82.708184		
0.697500		2.136629		-14.811473		91.209481		0.007234		1.678855		1.242410		85.227826		-11.940525		-5.862398		-123.178929		-14.174002		-13.753461		0.189533		78.620270		-7.406123		3.132580		-108.150051		-20.200614		3.410135		-33.275715		-35.144522		-0.343165		2.052365		19.316435		-0.369817		2.065113		95.699086		-30.425457		55.370718		38.772578		93.905557		-18.531452		7.499280		45.751343		118.008301		-38.900815		84.665065		54.502435		112.533173		-37.582127		11.054485		82.920856		
0.701591		2.124865		-14.504200		91.289540		0.007455		1.674055		1.234361		85.522656		-11.959503		-6.205056		-122.447862		-13.959739		-13.510605		0.490870		78.697554		-7.389007		3.053022		-107.030578		-20.215443		3.124553		-33.180230		-35.442177		-0.368580		2.086729		19.134978		-0.319526		1.887282		94.460394		-31.291568		55.602727		38.571277		94.089079		-18.257030		7.889085		45.731443		117.115260		-39.973586		84.528901		54.531222		112.675712		-37.453464		11.011768		83.037196		
0.705682		2.220017		-14.466656		91.448110		0.007112		1.668934		1.226475		85.987951		-12.091276		-6.555577		-121.599306		-13.703712		-12.810171		4.321692		79.047817		-7.317201		3.011483		-105.787278		-20.509565		2.623757		-31.891585		-35.463237		-0.196308		2.478425		19.086350		-0.566761		1.435753		92.797838		-32.632090		54.185579		39.175136		96.489249		-16.517748		9.745104		44.479106		114.839154		-40.654450		81.486448		54.228322		115.447562		-35.792800		10.461227		83.489659		
0.709773		2.254100		-14.312393		91.406591		0.007495		1.663911		1.218657		86.333007		-11.954699		-6.908044		-120.677008		-13.433357		-12.641547		4.793742		79.222391		-7.500844		2.799502		-104.492190		-20.835430		1.668328		-31.721409		-35.698693		-0.235905		2.639807		19.351038		-0.580116		1.353435		91.517126		-33.634067		54.196147		39.234615		96.706707		-16.232638		9.958600		44.393049		113.893560		-41.935146		81.135106		54.485575		115.081795		-35.743426		10.503384		83.561607		
0.713864		2.241286		-14.102828		91.432368		0.007648		1.658673		1.210560		86.555849		-11.954450		-7.197877		-119.745114		-13.118215		-12.542008		5.286868		79.296913		-7.581669		2.592885		-103.197068		-21.068886		1.020279		-31.513486		-35.921549		-0.275391		2.727155		19.210520		-0.547789		1.195109		90.099057		-34.711101		54.169621		39.413232		97.125415		-15.964266		10.302915		44.293554		112.863536		-43.242393		80.811610		54.797884		115.001518		-35.634736		10.437797		83.730084		
0.717955		2.223286		-13.949148		91.480343		0.007722		1.653263		1.202585		86.818940		-11.954618		-7.420697		-118.764511		-12.910681		-12.493532		5.980930		79.372642		-7.608907		2.419544		-101.823913		-21.207062		0.541206		-31.115394		-36.079485		-0.306345		2.861649		19.325665		-0.554725		1.047720		88.580475		-35.755410		53.769429		39.463185		97.929684		-15.542382		10.829265		44.092346		111.728037		-44.291678		80.389350		54.730134		115.282527		-35.364900		10.330922		83.988907		
